<svg width="28" height="28" viewBox="0 0 28 28" fill="none" xmlns="http://www.w3.org/2000/svg">
<path d="M26.8342 14.5102C26.5053 13.2817 25.8475 12.2007 24.9453 11.3499C25.6824 9.61762 25.5713 7.62927 24.6288 5.99582C23.7246 4.43062 22.2654 3.31067 20.5195 2.84267C19.2903 2.51377 18.0241 2.54237 16.8346 2.89987C15.7017 1.39317 13.9376 0.494873 12.0428 0.494873C8.85392 0.494873 6.17917 2.71527 5.46742 5.68902C5.46092 5.68967 5.45507 5.68707 5.44857 5.68772C3.56227 5.92172 1.93597 7.00007 0.986324 8.64457C0.0821741 10.2098 -0.157676 12.0337 0.310324 13.7796C0.639874 15.0087 1.29767 16.091 2.20117 16.9418C1.46407 18.6747 1.57067 20.6559 2.51577 22.2939C3.41992 23.8591 4.87917 24.9791 6.62507 25.4471C7.20747 25.6031 7.79962 25.6804 8.38722 25.6804C9.03917 25.6804 9.68397 25.5758 10.3093 25.3879C11.4416 26.8972 13.1985 27.7949 15.1017 27.7949C18.2939 27.7949 20.9699 25.5706 21.6797 22.5929C23.5517 22.3654 25.2099 21.289 26.1589 19.6452C27.0624 18.08 27.3022 16.2561 26.8342 14.5102ZM20.1828 4.09782C21.5939 4.47547 22.7724 5.38092 23.5023 6.64517C24.1842 7.82622 24.3103 9.24517 23.8722 10.5237C23.8078 10.4834 23.7467 10.4386 23.6811 10.4002L17.7212 6.95912C17.5184 6.84277 17.2675 6.84407 17.0647 6.96302L10.436 10.8897L10.4022 7.89512L16.0332 4.64447C17.2987 3.91387 18.7723 3.72082 20.1828 4.09782ZM16.6513 12.3216L16.6916 15.8992L13.6132 17.7225L10.4939 15.9681L10.4536 12.3905L13.532 10.5673L16.6513 12.3216ZM6.57502 7.26267C6.57502 4.24732 9.02812 1.79487 12.0428 1.79487C13.4137 1.79487 14.7026 2.39027 15.5905 3.41207C15.5223 3.44847 15.4514 3.47902 15.3838 3.51802L9.42332 6.95912C9.22052 7.07677 9.09572 7.29517 9.09832 7.52917L9.18477 15.2323L6.57502 13.7646V7.26267ZM1.56547 13.4435C1.18782 12.033 1.38217 10.5588 2.11212 9.29457C2.80112 8.10117 3.94707 7.29647 5.28672 7.03647C5.28412 7.11187 5.27502 7.18597 5.27502 7.26267V14.1449C5.27502 14.3795 5.40177 14.596 5.60652 14.7117L12.3204 18.4882L9.74377 20.0144L4.11347 16.7631C2.84857 16.0331 1.94377 14.8547 1.56547 13.4435ZM6.96177 24.1919C5.55062 23.8143 4.37217 22.9088 3.64222 21.6446C2.95777 20.459 2.83037 19.0439 3.26977 17.7641C3.33542 17.805 3.39717 17.8505 3.46412 17.8895L9.42397 21.3306C9.52407 21.3885 9.63652 21.4177 9.74897 21.4177C9.86402 21.4177 9.97842 21.3872 10.0805 21.3267L16.7092 17.4001L16.743 20.3946L11.112 23.6453C9.84712 24.3765 8.37292 24.5709 6.96177 24.1919ZM20.5695 21.0271C20.5695 24.0424 18.1171 26.4949 15.1017 26.4949C13.7244 26.4949 12.4406 25.8975 11.5534 24.8738C11.6216 24.8374 11.6938 24.8101 11.7614 24.7711L17.7219 21.33C17.9247 21.2123 18.0495 20.9939 18.0469 20.7599L17.9598 13.0574L20.5695 14.5251V21.0271ZM25.0324 18.9952C24.346 20.1847 23.1864 21.0011 21.8578 21.2591C21.8604 21.1811 21.8695 21.1051 21.8695 21.0271V14.1449C21.8695 13.9102 21.7428 13.6938 21.538 13.5781L14.8242 9.80157L17.4008 8.27537L23.0311 11.5267C24.296 12.2566 25.2008 13.4357 25.5791 14.8462C25.9567 16.2567 25.7624 17.7309 25.0324 18.9952Z" fill="black"/>
</svg>
