<svg width="26" height="25" viewBox="0 0 26 25" fill="none" xmlns="http://www.w3.org/2000/svg">
<path fill-rule="evenodd" clip-rule="evenodd" d="M13.0506 0.957397C6.31812 0.957397 0.863098 6.41242 0.863098 13.1449C0.863098 18.5285 4.35431 23.0988 9.19836 24.7095C9.80933 24.8206 10.0315 24.4477 10.0315 24.1224C10.0315 23.8328 10.0196 23.0671 10.0156 22.0515C6.6236 22.7854 5.90948 20.4169 5.90948 20.4169C5.35406 19.0085 4.55664 18.6317 4.55664 18.6317C3.44977 17.8779 4.63995 17.8937 4.63995 17.8937C5.86188 17.981 6.50458 19.1474 6.50458 19.1474C7.59161 21.012 9.35706 20.4725 10.0513 20.163C10.1624 19.3735 10.4798 18.838 10.825 18.5325C8.11926 18.227 5.27472 17.1796 5.27472 12.5101C5.27472 11.1771 5.75079 10.0901 6.52838 9.23712C6.4054 8.93164 5.98486 7.68988 6.6474 6.01172C6.6474 6.01172 7.67096 5.6864 9.99976 7.26141C10.9717 6.99164 12.0151 6.85675 13.0506 6.85278C14.0861 6.85675 15.1295 6.99164 16.1014 7.26141C18.4302 5.6864 19.4498 6.01172 19.4498 6.01172C20.1163 7.68988 19.6998 8.93164 19.5728 9.23712C20.3544 10.0901 20.8225 11.1771 20.8225 12.5101C20.8225 17.1915 17.974 18.2191 15.2604 18.5245C15.6968 18.8975 16.0856 19.6433 16.0856 20.778C16.0856 22.4085 16.0737 23.7217 16.0737 24.1224C16.0737 24.4477 16.2919 24.8286 16.9108 24.7095C21.7509 23.0948 25.2381 18.5285 25.2381 13.1449C25.2381 6.41242 19.7831 0.957397 13.0506 0.957397Z" fill="black"/>
</svg>
