<svg width="34" height="25" viewBox="0 0 34 25" fill="none" xmlns="http://www.w3.org/2000/svg">
<path d="M33.1332 2.71584C32.7893 2.54725 32.641 2.86886 32.4392 3.03204C32.3702 3.08485 32.3119 3.15323 32.2537 3.2162C31.7506 3.75381 31.1629 4.10657 30.3944 4.06459C29.2718 4.00162 28.3131 4.35438 27.4654 5.21292C27.2853 4.15396 26.6867 3.52157 25.7761 3.116C25.2994 2.90542 24.8173 2.69417 24.4835 2.23579C24.2506 1.90943 24.1869 1.54584 24.0705 1.18766C23.996 0.971673 23.9222 0.750267 23.673 0.713704C23.4029 0.671725 23.2973 0.897871 23.191 1.08813C22.7671 1.86271 22.6032 2.71652 22.6188 3.58047C22.6561 5.52438 23.4767 7.07355 25.1078 8.17448C25.2933 8.3011 25.3407 8.42704 25.2825 8.61188C25.1714 8.99105 25.0387 9.36006 24.9223 9.73923C24.8478 9.98162 24.7367 10.0344 24.4774 9.92881C23.5823 9.55506 22.8091 9.00188 22.1259 8.33225C20.9661 7.21032 19.9173 5.97193 18.6091 5.00235C18.3017 4.77553 17.995 4.56495 17.6768 4.36454C16.3423 3.0686 17.8515 2.00423 18.2008 1.87761C18.5665 1.74558 18.3281 1.29261 17.1466 1.29803C15.9658 1.30344 14.8852 1.69818 13.508 2.22495C13.3069 2.30417 13.095 2.36172 12.8776 2.40912C11.6277 2.17214 10.3298 2.11933 8.97423 2.27235C6.42163 2.55672 4.38225 3.76329 2.88319 5.82365C1.08215 8.29975 0.658973 11.113 1.17762 14.0482C1.72335 17.1411 3.30163 19.7012 5.72694 21.7033C8.24298 23.7792 11.1395 24.7962 14.4451 24.6012C16.4526 24.4854 18.6877 24.2166 21.2085 22.0831C21.8442 22.3993 22.5112 22.5259 23.6182 22.6207C24.4706 22.7 25.2919 22.5788 25.9277 22.4467C26.9237 22.2362 26.8546 21.314 26.4944 21.1454C23.9953 20.2699 23.6371 19.8914 23.6371 19.8914C25.12 18.1371 27.355 16.3137 28.2291 10.4075C28.2982 9.93896 28.24 9.64376 28.2291 9.26391C28.2237 9.03235 28.2765 8.9423 28.5419 8.91589C29.2725 8.83126 29.9828 8.63152 30.6341 8.27334C32.5252 7.24079 33.2876 5.54402 33.4677 3.51074C33.4935 3.20063 33.4616 2.87902 33.1332 2.71584ZM16.6564 21.0194C13.8282 18.7959 12.4565 18.064 11.8898 18.0951C11.3603 18.1269 11.4557 18.7329 11.5722 19.1277C11.6941 19.5177 11.8532 19.7865 12.0753 20.1284C12.229 20.3552 12.3346 20.6924 11.9216 20.945C11.0109 21.509 9.4272 20.7554 9.35272 20.7181C7.5097 19.6328 5.96866 18.1994 4.88262 16.2399C3.83382 14.3535 3.22512 12.3304 3.12423 10.1705C3.09783 9.64917 3.25153 9.46433 3.77017 9.36954C4.45335 9.24292 5.15751 9.21652 5.84137 9.31672C8.72777 9.73855 11.1856 11.0291 13.246 13.0732C14.422 14.2378 15.3117 15.6285 16.2278 16.9881C17.2021 18.4316 18.2509 19.8068 19.5855 20.9341C20.0567 21.3295 20.4332 21.6295 20.7927 21.8509C19.7074 21.9728 17.8955 21.9992 16.6564 21.0194ZM18.0126 12.2993C18.0126 12.0677 18.1981 11.8829 18.4311 11.8829C18.4839 11.8829 18.5319 11.893 18.5739 11.9093C18.6321 11.9303 18.685 11.9621 18.7276 12.0095C18.8021 12.0833 18.8441 12.1889 18.8441 12.2993C18.8441 12.5308 18.6586 12.7157 18.4256 12.7157C18.1927 12.7157 18.0126 12.5315 18.0126 12.2993ZM22.2227 14.4598C21.9526 14.5702 21.6824 14.665 21.4231 14.6758C21.0202 14.6968 20.5808 14.5337 20.3425 14.3332C19.9714 14.0225 19.7067 13.8484 19.5956 13.3061C19.5482 13.0745 19.5746 12.7157 19.6166 12.5105C19.7121 12.0677 19.6058 11.7833 19.2937 11.5254C19.0391 11.3148 18.7161 11.2566 18.3613 11.2566C18.2286 11.2566 18.1074 11.1983 18.0174 11.1509C17.8691 11.0771 17.7472 10.893 17.8637 10.6662C17.9009 10.5924 18.081 10.4136 18.123 10.3818C18.6051 10.1076 19.1609 10.1976 19.6749 10.4028C20.1515 10.5978 20.5117 10.9559 21.0311 11.4617C21.5605 12.0731 21.656 12.2417 21.958 12.7001C22.1963 13.0583 22.4137 13.4273 22.5619 13.8484C22.652 14.1118 22.5355 14.3278 22.2227 14.4598Z" fill="#536DFE"/>
</svg>
