<svg width="33" height="18" viewBox="0 0 33 18" fill="none" xmlns="http://www.w3.org/2000/svg">
<path d="M19.8076 9.14486C19.7934 8.9221 19.7839 8.6973 19.7839 8.46777C19.7839 4.35111 21.7204 1.69694 24.5235 1.69694C26.833 1.69694 28.8094 3.49934 29.2631 6.43652H30.6172L30.6179 0.342773H29.2631C29.2631 0.342773 28.9022 1.36246 28.586 1.12819C27.3002 0.406419 26.0652 0.361732 24.5072 0.361732C20.5802 0.361732 17.0756 3.90423 17.0756 8.41361C17.0756 8.66007 17.0898 8.90314 17.1088 9.14486H15.6876C15.7072 8.90314 15.7214 8.66007 15.7214 8.41361C15.7214 3.90423 12.2168 0.361732 8.28975 0.361732C6.73178 0.361732 5.49678 0.405742 4.211 1.12819C3.8948 1.36246 3.53392 0.342773 3.53392 0.342773H2.17907L2.17975 6.43652H3.53392C3.98756 3.49934 5.96397 1.69694 8.2735 1.69694C11.0766 1.69694 13.0131 4.35111 13.0131 8.46777C13.0131 8.6973 13.0036 8.9221 12.9894 9.14486H0.148499V10.499H0.831676C1.56496 10.499 2.17027 11.082 2.18517 11.8146C2.21089 13.0645 2.33142 14.5656 2.85683 15.2386C3.71605 16.3389 4.88808 17.2699 8.2735 17.2699C11.6738 17.2699 14.9902 14.2047 15.7214 10.499H17.0756C17.8068 14.2047 21.1232 17.2699 24.5235 17.2699C27.9089 17.2699 29.0809 16.3389 29.9402 15.2386C30.4656 14.5656 30.5861 13.0645 30.6118 11.8146C30.6267 11.082 31.2327 10.499 31.9653 10.499H32.6485V9.14486H19.8076ZM7.91938 15.7329C6.83266 15.7329 5.1061 15.7288 4.88808 14.5615C4.81428 14.1668 4.82647 12.8505 4.84949 11.822C4.86642 11.0861 5.46699 10.499 6.20365 10.499H13.0131C12.4755 13.7362 10.3149 15.7329 7.91938 15.7329ZM27.9089 14.5615C27.6909 15.7288 25.9643 15.7329 24.8776 15.7329C22.4828 15.7329 20.3215 13.7362 19.7839 10.499H26.5933C27.33 10.499 27.9306 11.0861 27.9475 11.822C27.9705 12.8505 27.9827 14.1668 27.9089 14.5615Z" fill="#43A047"/>
</svg>
